# Blender v3.1.2 OBJ File: 'Rock4.blend'
# www.blender.org
mtllib Rock4.mtl
o Cube_Cube.001
v 0.033899 -0.228977 -1.337176
v -0.500000 0.000000 -1.000000
v -0.873555 0.489858 -1.116406
v 0.274624 -0.412479 1.436001
v 0.552571 0.442299 1.001119
v 0.500000 1.000000 0.000000
v -0.468033 0.978419 0.421712
v 0.500000 1.000000 -0.500000
v 0.062019 1.141225 -0.410167
v -0.724653 1.162428 -0.219648
v -0.500000 -1.000000 0.000000
v 0.000000 -1.000000 0.000000
v 0.500000 -1.000000 0.000000
v 0.429970 0.931758 -1.056943
v 0.138382 0.853716 -1.024597
v -0.389341 0.960310 -0.792988
v 0.500000 -1.000000 1.000000
v 0.000000 -1.000000 1.000000
v -0.500000 -1.000000 1.000000
v -0.500000 -1.000000 0.500000
v 0.000000 -1.000000 0.500000
v 0.500000 -1.000000 0.500000
v -0.500000 -1.000000 -1.000000
v 0.000000 -1.000000 -1.000000
v 0.500000 -1.000000 -1.000000
v -0.500000 -1.000000 -0.500000
v 0.000000 -1.000000 -0.500000
v 0.500000 -1.000000 -0.500000
v -1.039827 0.875203 -0.402661
v 1.000000 -1.000000 -0.500000
v 1.000000 -1.000000 0.000000
v 1.000000 -1.000000 0.500000
v -1.000000 -1.000000 0.500000
v -1.000000 -1.000000 0.000000
v -1.000000 -1.000000 -0.500000
v 0.879861 0.716788 -0.499486
v 0.530287 0.803234 0.802414
v 1.000000 -1.000000 -1.000000
v 1.000000 -1.000000 1.000000
v -1.000000 -1.000000 -1.000000
v 0.755316 0.677046 -0.712019
v -1.000000 -1.000000 1.000000
v 0.044590 0.318600 -1.261124
v -0.750000 0.250000 1.000000
v -0.457213 -0.528769 1.192775
v -1.310185 0.407178 0.050134
v -1.422912 -0.148515 0.058801
v -1.310185 -0.592822 0.050134
v 1.220647 0.272004 0.433016
v 1.421486 -0.267992 0.631148
v 1.094771 -0.987950 0.154810
v 0.000000 0.500000 1.000000
v 0.500000 0.500000 -1.000000
v 0.664757 -0.112965 -1.053304
v 0.556232 -0.597190 -1.213812
v -1.000000 -0.500000 1.000000
v 1.093001 0.124328 -0.780963
v 1.308033 -0.486394 -1.038273
v 1.220647 0.272004 -0.066984
v 1.252847 -0.051975 -0.146608
v 1.259272 -0.767559 -0.360847
v 1.000000 0.000000 1.000000
v 1.000000 -0.500000 1.000000
v -1.000000 0.000000 -1.000000
v -1.000000 -0.500000 -1.000000
v -1.310185 0.330940 0.397658
v -1.310185 -0.092822 0.550134
v -1.310185 -0.592822 0.550134
v 0.935687 0.413589 -0.558196
v 0.977852 -0.201265 -0.505191
v -1.310185 0.407178 -0.449866
v -1.310185 -0.016584 -0.297390
v -1.310185 -0.592822 -0.449866
vt 0.179371 0.233640
vt 0.000000 0.272996
vt 0.100327 0.112589
vt 0.195091 0.858407
vt 0.095997 0.815557
vt 0.050705 0.777978
vt 0.155632 0.767685
vt 0.238637 0.403831
vt 0.139675 0.430121
vt 0.030561 0.394391
vt 0.160547 0.339970
vt 0.232287 0.301911
vt 0.468230 0.427308
vt 0.404664 0.381056
vt 0.495335 0.410659
vt 0.555830 0.427293
vt 0.380629 0.690077
vt 0.380629 0.602493
vt 0.468230 0.602477
vt 0.468230 0.690062
vt 0.292906 0.853218
vt 0.245089 0.739815
vt 0.292906 0.765684
vt 0.293029 0.690092
vt 0.293029 0.602508
vt 0.293029 0.777677
vt 0.380629 0.777661
vt 0.743247 0.601245
vt 0.657866 0.588036
vt 0.643430 0.536845
vt 0.719674 0.524427
vt 0.293029 0.514924
vt 0.380629 0.514908
vt 0.110374 0.503081
vt 0.008419 0.438939
vt 0.411533 0.888477
vt 0.469590 0.777677
vt 0.469590 0.911002
vt 0.502687 0.000000
vt 0.545331 0.053490
vt 0.382831 0.029534
vt 0.468230 0.514893
vt 0.555830 0.514877
vt 0.555830 0.602462
vt 0.555830 0.777630
vt 0.555830 0.690046
vt 0.643430 0.690031
vt 0.643430 0.777615
vt 0.293029 0.291217
vt 0.282044 0.382113
vt 0.287561 0.251310
vt 0.362569 0.861409
vt 0.411533 1.000000
vt 0.293029 0.960885
vt 0.468230 0.777646
vt 0.477133 0.138139
vt 0.562638 0.138139
vt 0.293029 0.159847
vt 0.417531 0.151473
vt 0.643430 0.602446
vt 0.660198 0.119171
vt 0.643430 0.514862
vt 0.240113 0.070484
vt 0.085441 0.067746
vt 0.717970 0.763550
vt 0.646334 0.682783
vt 0.411533 0.777677
vt 0.293029 0.427339
vt 0.380629 0.427324
vt 0.697649 0.482865
vt 0.791044 0.422198
vt 0.121708 0.703196
vt 0.066715 0.689859
vt 0.066715 0.602325
vt 0.154017 0.565623
vt 0.000000 0.768441
vt 0.942320 0.184728
vt 0.900766 0.170093
vt 0.942320 0.000000
vt 0.643430 0.427277
vt 0.010551 0.806457
vt 0.288019 0.650411
vt 0.293029 0.138755
vt 0.900766 0.350498
vt 0.820577 0.350412
vt 0.775784 0.223478
vt 0.900766 0.262895
vt 0.740387 0.350326
vt 0.669373 0.271858
vt 0.292906 0.678149
vt 0.978685 0.521917
vt 0.902784 0.510672
vt 0.888863 0.381056
vt 0.978685 0.434453
vt 0.823935 0.494062
vt 0.900766 0.175292
vt 0.660198 0.175034
vt 0.900766 0.087689
vt 0.811592 0.095180
vt 0.820577 0.000000
vt 0.900766 0.000086
vt 0.700293 0.043672
vt 0.978685 0.696845
vt 0.835542 0.601458
vt 0.978685 0.609381
vt 0.806011 0.698518
vt 0.292906 0.590615
vt 0.206564 0.503670
vt 0.292906 0.503081
vt 0.120221 0.504259
vt 0.251682 0.000000
vt 0.151644 0.003724
vt 0.556251 0.381056
vt 0.560393 0.313041
vt 0.642879 0.293605
vt 0.641757 0.381056
vt 0.535612 0.212256
vt 0.644002 0.206154
vt 0.299734 0.381056
vt 0.300857 0.293605
vt 0.389382 0.313041
vt 0.385240 0.381056
vt 0.390504 0.225590
vt 0.470745 0.381056
vt 0.474887 0.313041
vt 0.478692 0.236495
vt 0.978685 0.784308
vt 0.892348 0.785145
vt 0.806011 0.785982
vn 0.0806 0.9688 0.2345
vn 0.8695 0.1019 0.4834
vn -0.0364 0.9194 -0.3916
vn 0.1654 0.9734 0.1585
vn 0.3522 -0.9248 -0.1436
vn 0.0000 -1.0000 0.0000
vn 0.7983 -0.5924 -0.1084
vn 0.0845 0.9662 0.2434
vn 0.2334 0.1720 -0.9571
vn -0.4031 0.7630 -0.5053
vn 0.8366 0.4821 0.2603
vn -0.6036 0.7788 0.1708
vn -0.7308 0.5204 0.4417
vn 0.6636 0.6992 -0.2659
vn -0.2191 0.6573 0.7211
vn -0.7096 0.6568 0.2552
vn 0.0342 0.9563 -0.2903
vn -0.5133 0.6466 0.5643
vn -0.7589 0.4825 -0.4373
vn 0.6802 0.6550 0.3292
vn -0.1157 0.5332 -0.8381
vn 0.0823 0.7996 0.5949
vn 0.6318 0.2705 -0.7264
vn 0.9649 0.2485 -0.0853
vn 0.8678 0.2437 -0.4332
vn -0.2462 0.4557 0.8554
vn 0.5977 0.8017 0.0000
vn 0.8608 0.4351 -0.2641
vn 0.9802 -0.1869 -0.0662
vn 0.7121 0.6983 0.0728
vn 0.3006 -0.3006 0.9051
vn 0.5152 0.0000 0.8571
vn 0.3362 0.3379 0.8791
vn 0.6675 -0.7446 0.0000
vn 0.7353 0.2004 -0.6474
vn 0.8319 0.0815 -0.5489
vn 0.1593 -0.3202 -0.9339
vn 0.1804 0.2728 -0.9450
vn 0.3669 0.3342 -0.8681
vn 0.0000 -0.5959 0.8030
vn 0.0443 0.4415 0.8962
vn -0.1836 -0.1836 0.9657
vn -0.3275 0.1092 0.9385
vn 0.0000 -0.4007 -0.9162
vn -0.3500 -0.1583 -0.9233
vn 0.9880 -0.1092 0.1092
vn 0.7179 -0.4115 0.5615
vn 0.6628 0.5412 0.5176
vn -0.9091 -0.2946 -0.2946
vn -0.8966 0.0621 -0.4386
vn -0.8771 -0.0198 -0.4799
vn -0.8902 -0.3222 0.3222
vn -0.7458 0.1492 0.6492
vn -0.6936 0.2439 0.6778
vn -0.7955 -0.6060 0.0000
vn -0.9859 -0.0863 -0.1431
vn -0.9888 0.0948 -0.1156
vn -0.1265 -0.4782 0.8691
vn -0.3290 0.1085 0.9381
vn -0.1316 0.3949 0.9093
vn -0.1806 -0.1806 -0.9668
vn -0.2498 0.2498 -0.9355
vn 0.0000 -0.2312 -0.9729
vn -0.9858 -0.1188 0.1188
vn -0.9815 0.1352 0.1352
vn -0.0426 -0.4218 -0.9057
vn 0.3670 0.2176 -0.9044
vn 0.4089 0.1545 -0.8994
usemtl Rock_Material
s off
f 6/1/1 7/2/1 37/3/1
f 58/4/2 57/5/2 69/6/2 70/7/2
f 15/8/3 16/9/3 10/10/3 9/11/3
f 8/12/4 9/11/4 10/10/4 6/1/4
f 31/13/5 61/14/5 51/15/5 32/16/5
f 26/17/6 27/18/6 12/19/6 11/20/6
f 38/21/7 58/4/7 61/22/7 30/23/7
f 23/24/6 24/25/6 27/18/6 26/17/6
f 40/26/6 23/24/6 26/17/6 35/27/6
f 6/1/8 10/10/8 7/2/8
f 43/28/9 15/29/9 14/30/9 53/31/9
f 24/25/6 25/32/6 28/33/6 27/18/6
f 16/9/10 3/34/10 29/35/10 10/10/10
f 58/4/11 70/7/11 61/22/11
f 66/36/12 7/37/12 46/38/12
f 10/39/13 29/40/13 7/41/13
f 12/19/6 13/42/6 22/43/6 21/44/6
f 33/45/6 20/46/6 19/47/6 42/48/6
f 41/49/14 14/50/14 8/12/14 36/51/14
f 52/52/15 7/53/15 44/54/15
f 35/27/6 26/17/6 11/20/6 34/55/6
f 46/56/16 7/41/16 29/40/16 71/57/16
f 14/50/17 15/8/17 9/11/17 8/12/17
f 44/58/18 7/41/18 66/59/18
f 20/46/6 21/44/6 18/60/6 19/47/6
f 71/57/19 29/40/19 3/61/19
f 11/20/6 12/19/6 21/44/6 20/46/6
f 13/42/6 31/13/6 32/16/6 22/43/6
f 21/44/6 22/43/6 17/62/6 18/60/6
f 49/63/20 6/1/20 37/3/20 5/64/20
f 3/65/21 16/66/21 15/29/21 43/28/21
f 5/67/22 7/53/22 52/52/22
f 25/32/6 38/68/6 30/69/6 28/33/6
f 27/18/6 28/33/6 13/42/6 12/19/6
f 53/31/23 14/30/23 41/70/23 57/71/23
f 60/72/24 59/73/24 49/74/24 50/75/24
f 69/6/25 36/76/25 59/73/25
f 5/77/26 37/78/26 7/79/26
f 28/33/6 30/69/6 31/13/6 13/42/6
f 36/51/27 8/12/27 6/1/27
f 22/43/6 32/16/6 39/80/6 17/62/6
f 34/55/6 11/20/6 20/46/6 33/45/6
f 57/5/28 41/81/28 36/76/28 69/6/28
f 61/22/29 60/72/29 50/75/29 51/82/29
f 59/83/30 36/51/30 6/1/30 49/63/30
f 39/84/31 63/85/31 4/86/31 17/87/31
f 63/85/32 62/88/32 4/86/32
f 62/88/33 5/89/33 4/86/33
f 30/23/34 61/22/34 31/90/34
f 61/22/35 70/7/35 60/72/35
f 70/7/36 69/6/36 59/73/36 60/72/36
f 25/91/37 55/92/37 58/93/37 38/94/37
f 55/92/38 54/95/38 58/93/38
f 54/95/39 53/31/39 57/71/39 58/93/39
f 17/87/40 4/86/40 18/96/40
f 4/86/41 5/89/41 52/97/41
f 19/98/42 45/99/42 56/100/42 42/101/42
f 45/99/43 44/102/43 56/100/43
f 23/103/44 1/104/44 24/105/44
f 2/106/45 3/65/45 43/28/45 1/104/45
f 32/107/46 51/82/46 63/108/46 39/109/46
f 51/82/47 50/75/47 62/110/47 63/108/47
f 50/111/48 49/63/48 5/64/48 62/112/48
f 35/113/49 73/114/49 65/115/49 40/116/49
f 73/114/50 72/117/50 64/118/50 65/115/50
f 72/117/51 71/57/51 3/61/51 64/118/51
f 42/119/52 56/120/52 68/121/52 33/122/52
f 56/120/53 44/58/53 67/123/53 68/121/53
f 44/58/54 66/59/54 67/123/54
f 34/124/55 48/125/55 73/114/55 35/113/55
f 48/125/56 47/126/56 72/117/56 73/114/56
f 47/126/57 46/56/57 71/57/57 72/117/57
f 18/96/58 4/86/58 45/99/58 19/98/58
f 4/86/59 44/102/59 45/99/59
f 4/86/60 52/97/60 44/102/60
f 40/127/61 65/128/61 1/104/61 23/103/61
f 65/128/62 64/129/62 2/106/62 1/104/62
f 64/129/63 3/65/63 2/106/63
f 33/122/55 68/121/55 48/125/55 34/124/55
f 68/121/64 67/123/64 47/126/64 48/125/64
f 67/123/65 66/59/65 46/56/65 47/126/65
f 24/105/66 1/104/66 55/92/66 25/91/66
f 1/104/67 54/95/67 55/92/67
f 1/104/68 43/28/68 53/31/68 54/95/68
