# Blender v3.1.2 OBJ File: 'Rock5.blend'
# www.blender.org
mtllib Rock5.mtl
o Cube_Cube.001
v 0.643450 -0.680231 0.643450
v 0.412612 1.981343 0.552078
v 0.643450 -0.680231 -0.643450
v 0.865877 0.675690 -0.886854
v -0.333333 -0.680231 -1.000000
v 0.375969 0.182621 -1.211905
v 0.897385 -0.695901 0.254851
v 1.019413 0.564473 0.165064
v -1.174192 -0.695901 0.254851
v -1.000000 0.680231 0.333333
v 0.897385 -0.695901 -0.435675
v 1.000000 0.680231 -0.333333
v -0.853340 0.675690 0.832363
v -0.643450 -0.680231 0.643450
v -0.643450 -0.680231 -0.643450
v -0.853340 0.675690 -0.886854
v 0.333333 -0.680231 -1.000000
v -1.174192 -0.695901 -0.435675
v -1.000000 0.680231 -0.333333
v 0.206859 -0.695901 0.945376
v 0.184860 0.723494 1.137083
v -0.483666 -0.695901 0.945376
v -0.309926 0.557731 1.335924
v 0.304072 1.889549 -0.983255
v -0.264288 1.889549 -0.983255
v 0.521758 2.190172 -0.269921
v -0.408196 2.439560 -0.090383
v -0.310987 2.039683 0.828105
v -0.333333 -2.040692 -0.333333
v 0.333333 -2.040692 -0.333333
v -0.531884 -2.164410 -0.946861
v 0.484319 -1.925761 -0.990135
v 0.482441 -1.965069 0.918417
v -0.458418 -2.100233 1.077841
v 0.148329 2.149913 0.239918
v -0.230359 2.148824 0.321453
v -0.333333 -2.040692 0.333333
v 0.333333 -2.040692 0.333333
v -1.090532 -2.009855 0.567916
v -0.981786 -2.096899 -0.501082
v -0.879348 2.039683 -0.308616
v -1.014671 1.719160 0.290915
v 1.221598 -1.912324 -0.416051
v 1.027666 -1.954331 0.492582
v 0.825734 2.039683 -0.308616
v 1.024261 1.682022 -0.989759
v 0.497550 -2.040692 0.497550
v -0.879348 2.039683 -0.876976
v -0.497550 -2.040692 -0.497550
v -1.063556 1.644494 0.884599
v -0.497550 -2.040692 0.497550
vt 0.448300 0.606736
vt 0.459521 0.517805
vt 0.466779 0.584251
vt 0.519315 0.580593
vt 0.317756 0.348448
vt 0.281145 0.243356
vt 0.310516 0.181102
vt 0.358638 0.346337
vt 0.011779 0.615834
vt 0.047033 0.630738
vt 0.087840 0.695454
vt 0.053580 0.722103
vt 0.966980 0.175424
vt 0.964274 0.351469
vt 0.900315 0.330102
vt 0.880680 0.176762
vt 0.394456 0.500857
vt 0.381825 0.347479
vt 0.467683 0.339971
vt 0.510069 0.495115
vt 0.377796 0.175282
vt 0.440863 0.184414
vt 0.810205 0.170871
vt 0.811333 0.344076
vt 0.787138 0.348591
vt 0.742460 0.182009
vt 0.456438 0.689835
vt 0.550949 0.696584
vt 0.907003 0.519530
vt 0.811885 0.471106
vt 0.837376 0.349939
vt 0.030882 0.518578
vt 0.048740 0.342642
vt 0.087346 0.340570
vt 0.103804 0.511549
vt 1.000000 0.016360
vt 0.880710 0.000000
vt 0.569206 0.844414
vt 0.582936 0.673070
vt 0.626099 0.672531
vt 0.626099 0.858139
vt 0.138585 0.341617
vt 0.129029 0.169500
vt 0.212531 0.170105
vt 0.225075 0.342244
vt 0.517565 0.502815
vt 0.518649 0.332346
vt 0.561226 0.328532
vt 0.569206 0.488720
vt 0.796275 0.522358
vt 0.796275 0.682393
vt 0.760896 0.684470
vt 0.729302 0.517695
vt 0.000000 0.185593
vt 0.065808 0.169967
vt 0.097896 0.506202
vt 0.231192 0.518341
vt 0.479663 0.000000
vt 0.569206 0.149256
vt 0.569206 0.672531
vt 0.583868 0.517695
vt 0.613241 0.520276
vt 0.654756 0.672531
vt 0.654756 0.691807
vt 0.666780 0.522016
vt 0.729302 0.517695
vt 0.729302 0.684808
vt 0.494883 0.781186
vt 0.478926 0.708289
vt 0.702069 0.000779
vt 0.700203 0.188583
vt 0.617605 0.198790
vt 0.579447 0.046224
vt 0.156967 0.675684
vt 0.223336 0.642061
vt 0.237260 0.703254
vt 0.133871 0.710910
vt 0.000000 0.518578
vt 0.086520 0.538203
vt 0.623593 0.307785
vt 0.763664 0.000000
vt 0.704589 0.014382
vt 0.331432 0.504577
vt 0.299411 0.730914
vt 0.281145 0.603592
vt 0.365140 0.614920
vt 0.373278 0.698019
vt 0.135260 0.039301
vt 0.209956 0.000000
vt 0.661763 0.517695
vt 0.569206 0.502957
vt 0.574133 0.374913
vt 1.000000 0.513040
vt 0.237260 0.771635
vt 0.139303 0.768164
vt 0.061076 0.048003
vt 0.354799 0.720504
vt 0.360378 0.781186
vt 0.732181 0.508993
vt 0.157039 0.546945
vt 0.230093 0.574638
vt 0.281145 0.000516
vt 0.281145 0.171528
vt 0.284543 0.057585
vt 0.367387 0.004432
vt 0.343730 0.504577
vt 0.811885 0.517695
vn 0.0111 -0.9999 -0.0111
vn 0.7080 -0.2221 -0.6703
vn 0.3669 0.8888 0.2745
vn 0.1912 -0.2193 0.9568
vn 0.9737 0.1916 0.1231
vn 0.9961 -0.0848 -0.0245
vn -0.7460 -0.0441 -0.6645
vn 0.0848 -0.9963 0.0105
vn -0.3498 0.1420 0.9260
vn -0.9748 -0.0614 0.2146
vn 0.0931 0.0497 0.9944
vn -0.9464 -0.0051 -0.3231
vn -0.9921 0.1256 0.0000
vn 0.8483 0.0070 0.5295
vn 0.4464 0.0287 0.8944
vn -0.7569 -0.1516 0.6357
vn -0.9928 -0.1061 -0.0561
vn 0.7769 0.0327 0.6288
vn 0.6130 0.1443 -0.7768
vn 0.7149 0.0520 0.6973
vn -0.2718 0.0368 0.9616
vn 0.8828 -0.1284 -0.4519
vn -0.0786 -0.9938 -0.0786
vn -0.7926 -0.0696 0.6058
vn -0.0225 -0.0227 -0.9995
vn -0.5530 0.7026 0.4479
vn 0.2843 0.8655 -0.4125
vn 0.0000 -0.2385 -0.9711
vn -0.1934 -0.0523 -0.9797
vn 0.7517 0.0859 -0.6538
vn 0.1404 -0.9901 0.0016
vn -0.9945 0.0432 -0.0953
vn 0.2443 0.8950 0.3733
vn 0.2462 0.0370 -0.9685
vn 0.3177 0.3285 0.8895
vn -0.4697 0.8781 0.0914
vn -0.9905 -0.1113 0.0806
vn -0.4269 -0.0886 -0.9000
vn -0.0750 -0.9944 0.0750
vn 0.0000 0.1328 -0.9911
vn -0.1733 0.9160 -0.3618
vn 0.0900 0.8784 -0.4693
vn -0.9909 0.0361 -0.1297
vn 0.1429 0.9466 0.2890
vn 0.0000 -1.0000 0.0000
vn 0.0205 -0.9985 0.0514
vn 0.9987 0.0083 0.0496
vn 0.1286 -0.9815 -0.1422
vn -0.2182 0.0284 -0.9755
vn 0.9297 0.2175 0.2972
vn 0.1349 -0.9908 -0.0098
usemtl Rock_Material
s off
f 38/1/1 44/2/1 47/3/1 33/4/1
f 17/5/2 6/6/2 4/7/2 3/8/2
f 45/9/3 26/10/3 35/11/3 2/12/3
f 20/13/4 21/14/4 23/15/4 22/16/4
f 43/17/5 11/18/5 7/19/5 44/20/5
f 11/18/6 12/21/6 8/22/6 7/19/6
f 18/23/7 19/24/7 16/25/7 15/26/7
f 37/27/8 38/1/8 33/4/8 34/28/8
f 23/15/9 28/29/9 50/30/9 13/31/9
f 34/32/10 22/33/10 14/34/10 51/35/10
f 33/36/11 20/13/11 22/16/11 34/37/11
f 49/38/12 15/39/12 5/40/12 31/41/12
f 9/42/13 10/43/13 19/44/13 18/45/13
f 47/46/14 1/47/14 20/48/14 33/49/14
f 44/50/15 7/51/15 1/52/15 47/53/15
f 22/33/16 23/54/16 13/55/16 14/34/16
f 39/56/17 9/42/17 18/45/17 40/57/17
f 1/47/18 2/58/18 21/59/18 20/48/18
f 32/60/19 3/61/19 11/62/19 43/63/19
f 7/19/20 8/22/20 2/58/20 1/47/20
f 51/64/21 14/65/21 9/66/21 39/67/21
f 3/8/22 4/7/22 12/21/22 11/18/22
f 39/68/23 37/27/23 34/28/23 51/69/23
f 14/34/24 13/55/24 10/43/24 9/42/24
f 31/70/25 5/71/25 17/72/25 32/73/25
f 27/74/26 41/75/26 42/76/26 36/77/26
f 46/78/27 24/79/27 26/10/27 45/9/27
f 5/71/28 6/80/28 17/72/28
f 40/81/29 18/23/29 15/26/29 49/82/29
f 32/83/30 17/5/30 3/8/30
f 31/84/31 32/85/31 30/86/31 29/87/31
f 10/43/32 42/88/32 41/89/32 19/44/32
f 26/10/33 27/74/33 36/77/33 35/11/33
f 6/80/34 24/90/34 46/91/34 4/92/34
f 21/14/35 2/93/35 28/29/35 23/15/35
f 36/77/36 42/76/36 50/94/36 28/95/36
f 13/55/37 50/96/37 42/88/37 10/43/37
f 15/26/38 16/25/38 6/80/38 5/71/38
f 49/97/39 31/84/39 29/87/39 40/98/39
f 6/80/40 25/99/40 24/90/40
f 25/100/41 48/101/41 41/75/41 27/74/41
f 24/79/42 25/100/42 27/74/42 26/10/42
f 19/44/43 41/89/43 48/102/43 16/103/43
f 35/11/44 36/77/44 28/95/44 2/12/44
f 29/87/45 30/86/45 38/1/45 37/27/45
f 40/98/46 29/87/46 37/27/46 39/68/46
f 4/7/47 46/104/47 45/105/47 12/21/47
f 32/85/48 43/106/48 30/86/48
f 16/25/49 48/107/49 25/99/49 6/80/49
f 12/21/50 45/105/50 2/58/50 8/22/50
f 30/86/51 43/106/51 44/2/51 38/1/51
