# Blender v3.1.2 OBJ File: 'Rock1.blend'
# www.blender.org
mtllib Rock1.mtl
o Cube_Cube.001
v 0.882686 0.906772 -1.617534
v 0.749277 0.898881 -2.066412
v 0.581864 0.139925 -1.932112
v 1.522900 0.139925 -1.932112
v 0.592113 0.492339 -2.272047
v 1.096889 0.492339 -2.091296
v 0.361942 1.076764 -1.673240
v 0.587236 1.396779 -1.329555
v 0.012886 1.475838 -1.463706
v 0.090315 0.906772 -2.031402
v -0.017842 0.492339 -2.272047
v -0.359172 0.139925 -1.932112
v 0.470518 0.000000 0.470518
v 0.470518 0.000000 -0.470518
v -0.072322 2.189415 0.009126
v -0.072322 2.189415 0.118175
v 0.206965 2.078886 -0.137103
v 0.206965 2.078886 0.065211
v 0.891893 1.555292 -0.108663
v 0.831853 1.536910 0.489547
v -0.914827 1.293489 0.017858
v -0.956565 1.327775 -0.322632
v -1.654108 0.973898 0.357578
v -1.492705 0.550136 -0.596997
v 1.913424 0.687520 -0.515284
v 1.668500 0.758956 0.515284
v 2.070127 0.206431 -0.608401
v 2.070127 0.206431 0.608401
v -1.825203 0.277867 0.608401
v -1.825203 0.277867 -0.608401
v -1.411554 0.000000 0.470518
v -1.411554 0.000000 -0.470518
v 1.411554 0.000000 -0.470518
v 1.411554 0.000000 0.470518
v -0.399977 2.078886 0.065211
v -0.399977 2.078886 -0.137103
v 0.036728 2.189415 0.009126
v 0.036728 2.189415 0.118175
v -0.470518 0.000000 0.470518
v -0.470518 0.000000 -0.470518
v -0.197663 2.078886 -0.339416
v 0.004651 2.078886 -0.339416
v -0.393708 1.553140 -1.062709
v 0.357462 1.428389 -0.850320
v -0.608401 0.277867 -1.825203
v 0.470518 0.000000 1.411554
v -0.470518 0.000000 1.411554
v -0.470518 0.000000 -1.411554
v 0.470518 0.000000 -1.411554
v 0.515715 0.064474 1.989641
v -0.554872 0.324828 2.000964
v 0.545246 0.545563 1.710290
v -0.339108 0.805918 1.721614
v -1.120270 0.555923 -1.787870
v 0.273388 1.612032 1.128564
v -0.347703 1.396622 0.967605
v 0.004651 2.078886 0.267525
v -0.197663 2.078886 0.267525
v -0.337358 2.078886 -0.276798
v 0.144346 2.078886 -0.276798
v 0.144346 2.078886 0.204906
v -0.337358 2.078886 0.204906
v 0.520049 1.603256 0.655387
v -0.821763 1.269997 0.537464
v -0.963465 1.541271 -0.693335
v 0.776295 1.483246 -0.636716
v 1.322767 0.935663 -1.330632
v -1.061084 0.871416 -1.332677
v 1.188067 0.758956 1.065420
v -0.942773 0.758956 1.065420
v -1.615380 0.277867 1.615380
v 1.615380 0.277867 1.615380
v -1.615380 0.277867 -1.615380
v 1.615380 0.277867 -1.615380
v 1.411554 0.000000 -1.411554
v -1.411554 0.000000 -1.411554
v 1.411554 0.000000 1.411554
v -1.411554 0.000000 1.411554
vt 0.547027 0.303932
vt 0.547027 0.441048
vt 0.498652 0.470747
vt 0.474623 0.324022
vt 0.822924 0.693673
vt 0.822924 0.556566
vt 0.872882 0.526930
vt 0.893349 0.673373
vt 0.033851 0.506356
vt 0.000000 0.381125
vt 0.123168 0.381014
vt 0.095323 0.496059
vt 0.762563 0.166815
vt 0.762563 0.029699
vt 0.870331 0.029699
vt 0.870331 0.166815
vt 0.171870 0.098719
vt 0.309425 0.032613
vt 0.355701 0.119155
vt 0.212254 0.144653
vt 0.374187 0.266590
vt 0.320106 0.316940
vt 0.762563 0.441048
vt 0.870331 0.441048
vt 0.868641 0.470747
vt 0.761930 0.525280
vt 0.870331 0.141359
vt 0.870331 0.049560
vt 0.900747 0.000000
vt 0.966811 0.106840
vt 0.279742 0.433643
vt 0.254416 0.506356
vt 0.604483 0.725418
vt 0.588336 0.822098
vt 0.481692 0.752235
vt 0.484052 0.730054
vt 0.295741 0.611934
vt 0.413631 0.695736
vt 0.296669 0.772779
vt 0.207132 0.660639
vt 0.822924 0.731612
vt 0.822924 0.878677
vt 0.719671 0.810629
vt 0.792573 0.798833
vt 0.435055 0.387598
vt 0.416772 0.397270
vt 0.424607 0.432860
vt 0.451993 0.392884
vt 0.190130 0.787842
vt 0.127158 0.747853
vt 0.654795 0.303932
vt 0.654795 0.441048
vt 0.547027 0.166815
vt 0.654795 0.166815
vt 0.076942 0.875754
vt 0.081946 0.895919
vt 0.052830 0.908825
vt 0.061203 0.860172
vt 0.039646 0.902433
vt 0.036743 0.848313
vt 0.223393 0.876890
vt 0.214376 0.973032
vt 0.078229 0.919807
vt 0.388920 0.439561
vt 0.393863 0.458357
vt 0.433147 0.442260
vt 0.467837 0.410323
vt 0.008566 0.860342
vt 0.018703 0.847518
vt 0.415421 0.124795
vt 0.448695 0.204124
vt 0.960150 0.759088
vt 0.888846 0.709386
vt 0.594311 0.637023
vt 0.481083 0.702745
vt 0.566172 0.591062
vt 0.474623 0.687211
vt 0.747502 0.617630
vt 0.818550 0.625204
vt 0.474623 0.878677
vt 0.575293 0.882631
vt 0.575293 1.000000
vt 0.509938 0.952574
vt 0.615871 0.526930
vt 0.361192 0.885437
vt 0.364200 0.973032
vt 0.547027 0.029699
vt 0.654795 0.029699
vt 0.437043 0.846473
vt 0.436628 0.956057
vt 0.762563 0.303932
vt 0.999579 0.626823
vt 0.962234 0.682230
vt 0.960150 0.581957
vt 0.999579 0.526930
vt 0.822924 0.830780
vt 0.888846 0.846493
vt 0.055331 0.229979
vt 0.138231 0.280258
vt 0.870331 0.303932
vt 0.474623 0.146725
vt 0.498652 0.000000
vt 0.741298 0.526930
vt 0.636552 0.650322
vt 0.696753 0.597616
vt 0.468253 0.087505
vt 0.474623 0.171580
vt 0.084043 0.725095
vt 0.022437 0.715802
vt 0.422703 0.454023
vt 0.414162 0.444624
vt 0.050826 0.921701
vt 0.000000 0.625219
vt 0.122328 0.597437
vt 0.991699 0.324958
vt 0.991699 0.460924
vt 0.871676 0.424969
vt 0.870331 0.400994
vt 0.397395 0.419094
vt 0.870331 0.324958
vt 0.870331 0.233158
vt 0.966811 0.225540
vt 0.900747 0.315165
vt 0.266099 0.385791
vt 0.023027 0.506356
vt 0.148628 0.540608
vt 0.284479 0.059242
vt 0.336385 0.000000
vt 0.412120 0.035944
vt 0.822924 0.967886
vt 0.888846 0.983599
vt 0.809600 0.542868
vt 0.468964 0.059955
vt 0.960150 0.847957
vt 0.942519 0.921735
vn -0.6458 -0.7603 0.0696
vn -0.0696 -0.7603 -0.6458
vn 0.2331 0.6884 0.6869
vn 0.0000 -1.0000 0.0000
vn 0.8077 0.4464 -0.3851
vn 0.5760 0.7928 -0.1989
vn 0.1610 -0.9219 0.3524
vn 0.4436 -0.8859 -0.1360
vn 0.5815 0.5814 0.5690
vn -0.3238 0.7969 -0.5099
vn -0.5903 0.6984 0.4047
vn -0.4685 0.3245 -0.8217
vn 0.5926 0.7686 -0.2411
vn 0.2610 0.9294 -0.2610
vn -0.3831 0.8269 0.4117
vn -0.4784 0.6856 -0.5487
vn -0.2871 0.9138 0.2871
vn -0.3196 0.9475 0.0000
vn -0.3104 0.7541 0.5787
vn -0.5656 0.6184 0.5456
vn -0.8108 0.5459 0.2109
vn 0.4878 0.8046 0.3386
vn 0.0000 0.9532 -0.3023
vn -0.1930 0.9620 -0.1930
vn 0.4857 0.7756 -0.4032
vn -0.5673 -0.5499 -0.6130
vn 0.2395 0.7178 -0.6537
vn 0.2678 0.6851 -0.6775
vn -0.3917 0.1369 -0.9099
vn 0.4240 0.8897 -0.1694
vn -0.1203 -0.9430 0.3104
vn -0.0929 -0.8088 0.5807
vn -0.0592 0.6204 0.7821
vn -0.5977 0.6332 0.4918
vn -0.3644 0.7778 0.5120
vn 0.1357 0.4714 0.8714
vn -0.3391 0.9140 -0.2229
vn 0.0000 -0.9657 -0.2596
vn 0.6193 0.7079 0.3395
vn -0.6458 -0.7603 -0.0696
vn 0.1994 0.8180 -0.5395
vn 0.8770 0.4737 0.0805
vn -0.5576 -0.8301 0.0000
vn 0.3181 0.8165 -0.4818
vn -0.8232 0.5591 0.0986
vn -0.7648 0.6198 0.1758
vn 0.0000 1.0000 0.0000
vn 0.0000 0.8038 0.5949
vn -0.8808 0.4590 -0.1163
vn -0.6350 0.7217 -0.2757
vn 0.4432 0.7792 0.4432
vn 0.5446 0.8387 0.0000
vn 0.4436 -0.8859 0.1360
vn 0.2991 -0.9542 0.0000
vn 0.5408 0.6462 0.5385
vn 0.6712 0.7343 0.1018
vn 0.4626 0.7940 0.3945
vn 0.6163 0.7849 0.0642
vn -0.6745 0.7295 -0.1138
vn -0.8919 0.4269 -0.1496
vn 0.9331 0.1375 -0.3323
vn 0.5506 0.6397 -0.5363
vn -0.3683 0.6779 -0.6363
vn -0.0212 0.4828 -0.8755
vn 0.5879 0.5396 -0.6027
vn 0.0000 -0.6942 -0.7197
vn 0.1050 -0.5327 -0.8397
usemtl Rock_Material
s off
f 31/1/1 78/2/1 71/3/1 29/4/1
f 48/5/2 76/6/2 73/7/2 45/8/2
f 50/9/3 72/10/3 69/11/3 52/12/3
f 14/13/4 49/14/4 75/15/4 33/16/4
f 27/17/5 74/18/5 67/19/5 25/20/5
f 25/20/6 67/19/6 66/21/6 19/22/6
f 46/23/7 77/24/7 72/25/7 50/26/7
f 33/27/8 75/28/8 74/29/8 27/30/8
f 52/12/9 69/11/9 63/31/9 55/32/9
f 43/33/10 65/34/10 59/35/10 41/36/10
f 29/37/11 71/38/11 70/39/11 23/40/11
f 45/41/12 73/42/12 68/43/12 54/44/12
f 19/22/13 66/21/13 60/45/13 17/46/13
f 37/47/14 17/46/14 60/45/14 42/48/14
f 23/40/15 70/39/15 64/49/15 21/50/15
f 54/44/16 68/43/16 65/34/16 43/33/16
f 78/2/4 31/1/4 39/51/4 47/52/4
f 31/1/4 32/53/4 40/54/4 39/51/4
f 62/55/17 58/56/17 16/57/17 35/58/17
f 35/58/18 16/57/18 15/59/18 36/60/18
f 56/61/19 55/62/19 57/63/19 58/56/19
f 64/49/20 56/61/20 58/56/20 62/55/20
f 21/50/21 64/49/21 62/55/21 35/58/21
f 55/32/22 63/31/22 61/64/22 57/65/22
f 15/66/23 37/47/23 42/48/23 41/67/23
f 36/60/24 15/59/24 41/68/24 59/69/24
f 66/21/25 67/19/25 1/70/25 8/71/25
f 48/5/26 45/8/26 11/72/26 12/73/26
f 44/74/27 43/33/27 41/36/27 42/75/27
f 66/76/28 44/74/28 42/75/28 60/77/28
f 45/41/29 54/44/29 10/78/29 11/79/29
f 43/80/30 44/81/30 7/82/30 9/83/30
f 47/52/31 46/23/31 50/26/31 51/84/31
f 78/2/32 47/52/32 51/84/32 71/3/32
f 53/85/33 52/86/33 55/62/33 56/61/33
f 70/39/34 53/85/34 56/61/34 64/49/34
f 32/53/4 76/87/4 48/88/4 40/54/4
f 40/54/4 48/88/4 49/14/4 14/13/4
f 71/38/35 51/89/35 53/85/35 70/39/35
f 51/89/36 50/90/36 52/86/36 53/85/36
f 39/51/4 40/54/4 14/13/4 13/91/4
f 47/52/4 39/51/4 13/91/4 46/23/4
f 44/92/37 66/93/37 8/94/37 7/95/37
f 49/96/38 48/5/38 12/73/38 3/97/38
f 72/10/39 28/98/39 26/99/39 69/11/39
f 46/23/4 13/91/4 34/100/4 77/24/4
f 76/87/40 32/53/40 30/101/40 73/102/40
f 2/103/41 10/78/41 9/104/41 7/105/41
f 28/98/42 27/17/42 25/20/42 26/99/42
f 13/91/4 14/13/4 33/16/4 34/100/4
f 32/53/43 31/1/43 29/4/43 30/101/43
f 1/70/44 2/106/44 7/107/44 8/71/44
f 22/108/45 21/50/45 35/58/45 36/60/45
f 65/109/46 22/108/46 36/60/46 59/69/46
f 16/110/47 38/111/47 37/47/47 15/66/47
f 58/56/48 57/63/48 38/112/48 16/57/48
f 68/113/49 24/114/49 22/108/49 65/109/49
f 24/115/50 23/116/50 21/117/50 22/118/50
f 57/65/51 61/64/51 18/119/51 38/111/51
f 38/111/52 18/119/52 17/46/52 37/47/52
f 77/120/53 34/121/53 28/122/53 72/123/53
f 34/121/54 33/27/54 27/30/54 28/122/54
f 69/11/55 26/99/55 20/124/55 63/31/55
f 26/99/56 25/20/56 19/22/56 20/124/56
f 63/31/57 20/124/57 18/119/57 61/64/57
f 20/124/58 19/22/58 17/46/58 18/119/58
f 73/125/59 30/126/59 24/114/59 68/113/59
f 30/126/60 29/37/60 23/40/60 24/114/60
f 74/18/61 75/127/61 4/128/61 6/129/61
f 67/19/62 74/18/62 6/129/62 1/70/62
f 54/44/63 43/33/63 9/104/63 10/78/63
f 75/130/38 49/96/38 3/97/38 4/131/38
f 5/132/64 11/79/64 10/78/64 2/103/64
f 6/129/65 5/133/65 2/106/65 1/70/65
f 3/97/66 12/73/66 11/72/66 5/134/66
f 4/131/67 3/97/67 5/134/67 6/135/67
