# Blender v3.1.2 OBJ File: 'Rock6.blend'
# www.blender.org
mtllib Rock6.mtl
o Cube_Cube.001
v -1.458534 0.174669 -0.192898
v -1.019864 0.767687 -0.293650
v -0.714602 0.711671 0.717683
v -0.808450 0.049228 1.054338
v -0.998469 -0.445178 1.055886
v 1.650916 -0.496569 0.819556
v 1.058418 -0.002163 0.376261
v -1.161370 -0.002163 0.580364
v 0.811826 0.856642 0.218471
v 0.647057 -0.496569 -1.293969
v 0.580010 -0.002163 -1.161016
v 0.321584 0.443457 -1.172770
v -0.646301 -0.496569 1.292747
v -0.580910 -0.002163 1.160823
v 1.293736 -0.496569 -1.293969
v 0.685734 0.196371 1.311314
v 0.755442 0.500000 0.755442
v -0.349129 0.404701 0.950249
v 0.377721 0.500000 0.755442
v 0.087883 0.694921 0.910955
v -0.870645 -1.000000 0.000000
v 0.000000 -1.000000 0.000000
v 0.870645 -1.000000 0.000000
v 0.758389 -1.000000 2.098471
v -0.777415 0.372218 0.410661
v -1.292980 -0.496569 -1.293969
v -0.490645 0.507243 -1.110084
v 0.265334 -1.000000 1.924984
v -1.023723 -1.000000 2.047445
v -0.112097 1.192862 -0.430525
v -0.296987 1.192862 -0.430525
v -0.654334 1.130940 -0.434740
v -0.050443 1.105287 -0.504574
v -0.235333 1.105287 -0.504574
v -1.161370 -0.002163 -1.161016
v -0.605113 1.105287 -0.504574
v -0.420223 1.105287 -0.504574
v -0.035079 1.195318 0.196810
v -0.219969 1.195318 0.196810
v -0.420223 1.105287 0.050096
v -0.493055 -1.000000 -2.149497
v 0.000378 -0.496569 1.292747
v -0.554165 0.147002 -1.423261
v 0.122462 -1.000000 -2.006625
v 0.755442 0.500000 -0.755442
v 0.799209 -1.000000 -2.027035
v -0.870645 -1.000000 -0.870645
v 0.000000 -1.000000 -0.870645
v 0.849736 0.613333 -0.105140
v 0.870645 -1.000000 -0.870645
v 1.120585 -0.193770 -0.589092
v -0.096733 1.282894 -0.098920
v -0.296987 1.192862 -0.245634
v -0.481877 1.192862 -0.245634
v 1.650916 -0.496569 -0.000611
v 1.160469 -0.002163 -0.000096
v -0.420223 1.105287 0.234986
v -0.235333 1.105287 0.234986
v -0.035079 1.195318 0.381700
v -0.004977 0.442738 -1.001835
v -0.870645 -1.000000 0.870645
v 0.000000 -1.000000 0.870645
v 0.870645 -1.000000 0.870645
v -0.605113 1.105287 -0.319684
v -0.605113 1.105287 -0.134794
v -0.998074 0.560992 0.091847
v -1.464774 -0.488328 -0.282830
v -0.605113 1.105287 0.050096
v 0.134448 1.105287 0.050096
v 0.134448 1.105287 -0.134794
v 0.134448 1.105287 -0.319684
v 0.944437 0.652638 -0.459468
v -1.464774 -0.488328 0.363849
v -2.016830 -1.000000 0.768594
v -1.904573 -1.000000 -0.102051
v 1.293736 -0.496569 1.292747
v -2.047445 -1.000000 -0.952287
v 2.180112 -1.000000 -1.003312
v 2.486266 -1.000000 0.091846
v 1.160469 -0.002163 -1.161016
v 2.180112 -1.000000 0.758389
v 0.134448 1.105287 -0.504574
v -1.292980 -0.496569 0.646068
v -0.326667 -0.452496 -1.686665
v 1.741291 -1.000000 -1.741291
v 0.134448 1.105287 0.234986
v 0.092581 0.021510 1.332666
v 1.659650 -1.000000 1.924984
v -1.659650 -1.000000 -1.996419
v -0.605113 1.105287 0.234986
v -1.659650 -1.000000 1.710675
vt 0.229534 0.723205
vt 0.196582 0.777865
vt 0.101650 0.748902
vt 0.198004 0.704467
vt 0.651251 0.169034
vt 0.536468 0.202110
vt 0.537577 0.179825
vt 0.621438 0.106181
vt 0.669631 0.797254
vt 0.609485 0.772184
vt 0.640363 0.704447
vt 0.156437 0.310939
vt 0.153353 0.203247
vt 0.261045 0.200164
vt 0.264128 0.307855
vt 0.271925 0.651156
vt 0.173152 0.611453
vt 0.737710 0.865446
vt 0.768512 0.781807
vt 0.315853 0.793037
vt 0.271925 0.786331
vt 0.296417 0.767486
vt 0.319068 0.770632
vt 0.525875 0.174921
vt 0.587635 0.076925
vt 0.749034 0.358390
vt 0.688921 0.343451
vt 0.693324 0.278563
vt 0.775004 0.252732
vt 0.258250 0.543796
vt 0.267212 0.415547
vt 0.374903 0.412463
vt 0.366340 0.554598
vt 0.699365 0.133562
vt 0.702847 0.063599
vt 0.336199 0.718371
vt 0.309004 0.731089
vt 0.312219 0.708683
vt 0.334869 0.711829
vt 0.156855 0.822518
vt 0.112291 0.819963
vt 0.464550 0.654497
vt 0.380170 0.718121
vt 0.362064 0.699111
vt 0.418276 0.648070
vt 0.462561 0.727079
vt 0.376956 0.740526
vt 0.856073 0.202156
vt 0.760670 0.124556
vt 0.861423 0.121128
vt 0.521005 0.427230
vt 0.481602 0.507082
vt 0.385713 0.627874
vt 0.332501 0.610346
vt 0.542499 0.709731
vt 0.537706 0.674254
vt 0.800447 0.652615
vt 0.707171 0.644617
vt 0.721935 0.544495
vt 0.800224 0.566747
vt 0.466768 0.807742
vt 0.370526 0.785337
vt 0.373741 0.762931
vt 0.461279 0.762471
vt 0.535359 0.224395
vt 0.521005 0.230650
vt 0.522114 0.208365
vt 0.358849 0.721516
vt 0.465301 0.580371
vt 0.897027 0.926654
vt 0.952672 0.911180
vt 0.979411 0.964891
vt 0.896828 0.955978
vt 0.800447 0.552942
vt 0.912745 0.554693
vt 0.920318 0.606942
vt 0.802507 0.641887
vt 0.371820 0.304772
vt 0.501293 0.268218
vt 0.835568 0.919977
vt 0.831895 0.964891
vt 0.153590 0.564480
vt 0.159520 0.418630
vt 0.125001 0.672269
vt 0.000000 0.691162
vt 0.010526 0.626612
vt 0.638550 0.203854
vt 0.015492 0.299814
vt 0.010571 0.216179
vt 0.764548 0.046612
vt 0.271925 0.758754
vt 0.245962 0.818505
vt 0.058430 0.822494
vt 0.015774 0.862103
vt 0.271925 0.909214
vt 0.311990 0.820987
vt 0.384092 0.807742
vt 0.384092 0.925777
vt 0.861423 0.280134
vt 0.036646 0.871309
vt 0.000000 0.376455
vt 0.534250 0.246679
vt 0.525703 0.273276
vt 0.022576 0.866765
vt 0.057518 0.880515
vt 0.040049 0.888503
vt 0.174102 0.876684
vt 0.497656 0.710783
vt 0.466768 0.710783
vt 0.472399 0.672786
vt 0.493307 0.688387
vt 0.630382 0.630464
vt 0.544853 0.630154
vt 0.521006 0.586706
vt 0.633083 0.583021
vt 0.338503 0.796183
vt 0.346262 0.757914
vt 0.132306 0.041747
vt 0.266684 0.000000
vt 0.023066 0.520210
vt 0.077790 0.564480
vt 0.956686 0.779085
vt 0.918849 0.845465
vt 0.853844 0.842120
vt 0.283139 0.750349
vt 0.286353 0.727943
vt 0.844738 0.416684
vt 0.635640 0.265844
vt 0.014972 0.868109
vt 0.368736 0.197080
vt 0.521005 0.206617
vt 0.612060 0.460633
vt 0.716195 0.481480
vt 0.392791 0.564480
vt 0.367312 0.807742
vt 0.344661 0.804597
vt 0.350214 0.035508
vt 0.569696 0.525290
vt 0.884451 0.416684
vt 0.948159 0.482976
vt 0.848989 0.000000
vt 0.099262 0.898926
vt 0.078390 0.889720
vt 0.948159 0.661782
vt 0.886128 0.733029
vt 0.507652 0.564479
vt 0.507652 0.670992
vt 0.495092 0.672786
vt 0.466768 0.586788
vt 0.861423 0.059484
vt 0.946748 0.000000
vt 0.946748 0.125351
vt 0.887096 0.193371
vt 0.289568 0.705538
vt 0.042578 0.098639
vt 0.533141 0.268964
vt 0.496355 0.095753
vt 0.814317 0.733029
vt 0.800447 0.793170
vt 1.000000 0.866935
vt 0.284062 0.637950
vt 0.800447 0.416684
vn -0.8392 0.3317 0.4310
vn 0.3460 0.7133 -0.6096
vn 0.9647 0.2220 0.1416
vn 0.0000 -1.0000 0.0000
vn -0.6635 0.7472 0.0396
vn 0.5406 0.7978 -0.2670
vn -0.1119 0.9874 -0.1119
vn 0.4590 0.7788 -0.4276
vn -0.3980 0.2815 -0.8731
vn 0.2956 0.5356 -0.7910
vn -0.3331 0.8821 0.3331
vn -0.6172 0.6100 0.4969
vn 0.2913 0.6883 0.6643
vn 0.3189 0.8396 0.4397
vn 0.1659 0.7438 -0.6475
vn -0.2889 0.7065 0.6461
vn 0.8898 0.4364 -0.1333
vn 0.5876 0.8001 0.1210
vn 0.5283 0.8351 0.1536
vn 0.0000 0.6457 -0.7636
vn 0.4690 0.8832 0.0000
vn 0.0000 0.8776 0.4794
vn -0.1884 0.4923 0.8498
vn -0.2290 0.8519 0.4709
vn -0.4641 0.2352 0.8540
vn -0.9570 0.1605 -0.2418
vn -0.2616 0.5678 -0.7805
vn 0.0000 0.2597 -0.9657
vn -0.7872 0.2930 0.5426
vn -0.7427 0.5563 -0.3726
vn 0.3816 0.6485 0.6587
vn 0.1805 0.6024 -0.7775
vn -0.6313 0.7756 0.0000
vn -0.0748 0.7031 -0.7071
vn -0.6363 0.7527 0.1688
vn -0.6681 0.6910 0.2759
vn -0.8469 0.4905 0.2053
vn 0.5770 0.8133 0.0742
vn 0.9301 0.3623 0.0600
vn 0.1692 0.7355 0.6561
vn 0.4983 0.8515 -0.1633
vn 0.6606 0.7487 0.0563
vn -1.0000 0.0094 0.0000
vn -0.7439 0.6645 0.0710
vn 0.0616 -0.0876 0.9943
vn -0.2005 0.9590 0.2005
vn -0.2828 0.9454 0.1621
vn -0.1732 0.7695 -0.6147
vn 0.1812 0.6604 -0.7287
vn -0.6148 0.4940 -0.6148
vn -0.7201 0.5937 0.3590
vn 0.6421 0.7314 0.2297
vn 0.1514 0.7229 0.6741
vn 0.2548 0.9328 -0.2548
vn 0.9001 0.3191 0.2966
vn 0.0373 0.8072 0.5890
vn 0.1101 0.7831 -0.6121
vn 0.9488 0.3159 0.0041
vn -0.9746 0.2222 -0.0289
vn -0.5134 0.8305 0.2159
vn -0.6840 0.5321 0.4990
vn 0.4781 0.8056 -0.3498
vn -0.5983 0.7839 -0.1660
vn -0.1646 0.9725 -0.1646
vn 0.0000 1.0000 0.0000
vn -0.4180 0.6170 -0.6668
vn -0.4294 0.5271 0.7333
vn 0.1088 0.4342 -0.8942
vn 0.0179 0.8073 -0.5898
vn -0.2462 0.5276 0.8130
vn -0.1302 0.1098 0.9854
vn 0.3900 0.2493 -0.8864
vn 0.0000 0.7115 -0.7027
vn 0.1238 0.7307 0.6714
vn 0.5497 0.8260 -0.1246
vn 0.6840 0.6788 -0.2671
vn 0.6076 0.7246 0.3252
usemtl Rock_Material
s off
f 83/1/1 8/2/1 1/3/1 73/4/1
f 12/5/2 33/6/2 82/7/2 45/8/2
f 15/9/3 80/10/3 51/11/3
f 48/12/4 50/13/4 23/14/4 22/15/4
f 74/16/5 83/1/5 73/4/5 75/17/5
f 85/18/6 15/9/6 51/11/6 78/19/6
f 31/20/7 32/21/7 54/22/7 53/23/7
f 45/8/8 82/7/8 71/24/8 72/25/8
f 26/26/9 35/27/9 43/28/9 84/29/9
f 75/30/4 21/31/4 61/32/4 74/33/4
f 11/34/10 12/5/10 45/8/10 80/35/10
f 39/36/11 40/37/11 57/38/11 58/39/11
f 8/2/12 25/40/12 66/41/12 1/3/12
f 17/42/13 86/43/13 59/44/13 19/45/13
f 9/46/14 69/47/14 86/43/14 17/42/14
f 44/48/15 84/29/15 10/49/15 46/50/15
f 74/33/4 61/32/4 29/51/4 91/52/4
f 20/53/16 58/39/16 57/38/16 18/54/16
f 80/10/17 45/55/17 72/56/17 51/11/17
f 79/57/18 55/58/18 6/59/18 81/60/18
f 72/61/19 71/62/19 70/63/19 49/64/19
f 33/6/20 34/65/20 31/66/20 30/67/20
f 69/47/21 38/68/21 59/44/21 86/43/21
f 16/69/22 17/42/22 19/45/22
f 14/70/23 18/71/23 3/72/23 4/73/23
f 29/74/24 13/75/24 5/76/24 91/77/24
f 61/32/4 62/78/4 28/79/4 29/51/4
f 38/68/11 39/36/11 58/39/11 59/44/11
f 13/80/25 14/70/25 4/73/25 5/81/25
f 77/82/4 47/83/4 21/31/4 75/30/4
f 67/84/26 1/3/26 35/85/26 26/86/26
f 60/87/27 34/65/27 33/6/27 12/5/27
f 44/88/4 46/89/4 50/13/4 48/12/4
f 47/83/4 48/12/4 22/15/4 21/31/4
f 10/49/28 11/34/28 80/35/28 15/90/28
f 5/91/29 4/92/29 8/2/29 83/1/29
f 1/3/30 2/93/30 36/94/30 35/85/30
f 88/95/31 76/96/31 16/97/31 24/98/31
f 41/99/32 84/29/32 44/48/32
f 2/93/33 64/100/33 36/94/33
f 41/101/4 44/88/4 48/12/4 47/83/4
f 34/65/34 37/102/34 32/103/34 31/66/34
f 32/104/35 64/100/35 65/105/35 54/106/35
f 66/41/36 65/105/36 64/100/36 2/93/36
f 4/92/37 3/107/37 25/40/37 8/2/37
f 70/108/38 52/109/38 38/110/38 69/111/38
f 56/112/39 49/113/39 9/114/39 7/115/39
f 19/45/40 59/44/40 58/39/40 20/53/40
f 71/62/41 30/116/41 52/117/41 70/63/41
f 50/13/4 78/118/4 79/119/4 23/14/4
f 89/120/4 41/101/4 47/83/4 77/82/4
f 55/58/42 56/112/42 7/115/42 6/59/42
f 73/4/43 1/3/43 67/84/43
f 75/17/44 73/4/44 67/84/44 77/121/44
f 16/122/45 87/123/45 42/124/45
f 54/22/46 65/125/46 68/126/46 40/37/46
f 53/23/47 54/22/47 40/37/47 39/36/47
f 89/127/48 26/26/48 84/29/48 41/99/48
f 27/128/49 37/102/49 34/65/49 60/87/49
f 37/129/50 36/94/50 64/100/50 32/104/50
f 62/78/4 63/130/4 24/131/4 28/79/4
f 1/3/51 66/41/51 2/93/51
f 6/59/52 7/115/52 16/132/52 76/133/52
f 16/69/53 19/45/53 20/53/53 87/134/53
f 82/135/54 33/136/54 30/116/54 71/62/54
f 23/14/4 79/119/4 81/137/4 63/130/4
f 7/115/55 9/114/55 17/138/55 16/132/55
f 28/139/56 42/140/56 13/75/56 29/74/56
f 46/50/57 10/49/57 15/90/57 85/141/57
f 51/11/58 72/56/58 49/113/58 56/112/58
f 22/15/4 23/14/4 63/130/4 62/78/4
f 3/107/59 90/142/59 68/143/59 25/40/59
f 91/77/60 5/76/60 83/144/60 74/145/60
f 25/40/61 68/143/61 65/105/61 66/41/61
f 49/146/62 70/147/62 69/148/62 9/149/62
f 77/150/63 67/151/63 26/152/63 89/153/63
f 30/116/64 31/20/64 53/23/64 52/117/64
f 40/37/65 68/126/65 90/154/65 57/38/65
f 46/89/4 85/155/4 78/118/4 50/13/4
f 35/27/66 36/156/66 27/128/66 43/28/66
f 52/117/47 53/23/47 39/36/47 38/68/47
f 63/130/4 81/137/4 88/157/4 24/131/4
f 24/158/67 16/122/67 42/124/67 28/159/67
f 84/29/68 43/28/68 12/5/68
f 43/28/69 27/128/69 60/87/69 12/5/69
f 87/123/70 20/160/70 18/71/70 14/70/70
f 42/124/71 87/123/71 14/70/71 13/80/71
f 84/29/72 12/5/72 11/34/72 10/49/72
f 21/31/4 22/15/4 62/78/4 61/32/4
f 36/156/73 37/102/73 27/128/73
f 18/54/74 57/38/74 90/154/74 3/161/74
f 78/19/75 51/11/75 55/58/75 79/57/75
f 51/11/76 56/112/76 55/58/76
f 81/60/77 6/59/77 76/133/77 88/162/77
