# Blender v3.1.2 OBJ File: 'Leaf.blend'
# www.blender.org
mtllib Leaf.mtl
o Plane
v 0.080554 0.304437 -4.500000
v -0.080554 0.304437 -4.500000
v -0.116282 0.246934 -3.000000
v 0.116282 0.246934 -3.000000
v 0.161402 0.000000 -1.000000
v -0.161402 0.000000 -1.000000
v 0.081232 0.205766 -4.516001
v -0.081232 0.205766 -4.516001
v -0.116571 0.147377 -3.009329
v 0.116571 0.147377 -3.009329
v 0.161692 -0.099972 -0.997949
v -0.161692 -0.099972 -0.997949
v 0.202512 0.268698 1.001690
v 0.178861 0.310435 0.953838
v 0.190740 0.259933 1.051120
v -0.202512 0.268698 1.001690
v -0.190740 0.259933 1.051120
v -0.178861 0.310435 0.953838
v 0.011280 0.481752 -5.497205
v -0.011280 0.481752 -5.497205
v 0.000000 0.523891 -5.474725
v 2.180287 0.268540 -0.980016
v 2.190908 0.268550 -1.050375
v 2.173595 0.314969 -1.000000
v 1.197692 0.317639 0.950900
v 1.190929 0.268806 1.005121
v 2.179495 0.270356 -3.015725
v 2.173522 0.317053 -3.000000
v 2.190907 0.268550 -2.954378
v 0.778842 0.480093 -4.507344
v 0.759684 0.522589 -4.500000
v -2.190908 0.268550 -1.050375
v -2.180287 0.268540 -0.980016
v -2.173595 0.314969 -1.000000
v -1.190929 0.268806 1.005121
v -1.197692 0.317639 0.950900
v -2.190907 0.268550 -2.954378
v -2.173522 0.317053 -3.000000
v -2.179495 0.270356 -3.015724
v -0.778842 0.480093 -4.507344
v -0.759684 0.522589 -4.500000
v 0.178861 -0.048492 2.992296
v 0.190635 -0.040787 2.943804
v 0.178861 0.007705 2.951508
v -0.178861 -0.048492 2.992296
v -0.178861 0.007705 2.951508
v -0.190635 -0.040787 2.943804
v 0.202516 0.266906 1.001834
v 0.190734 0.259933 1.051120
v 0.179076 0.210491 0.957212
v -0.202516 0.266906 1.001834
v -0.179076 0.210491 0.957212
v -0.190734 0.259933 1.051120
v 0.011272 0.480222 -5.497469
v 0.000000 0.426724 -5.498325
v -0.011272 0.480222 -5.497469
v 2.180309 0.266799 -0.979948
v 2.174152 0.215029 -1.002525
v 2.190918 0.266789 -1.050420
v 1.190940 0.267044 1.005306
v 1.198132 0.218194 0.961376
v 2.179508 0.268630 -3.015911
v 2.190915 0.267013 -2.954491
v 2.174073 0.217350 -3.007350
v 0.760406 0.423764 -4.514982
v 0.778855 0.478336 -4.507610
v -2.190918 0.266789 -1.050420
v -2.174152 0.215029 -1.002525
v -2.180309 0.266799 -0.979948
v -1.198132 0.218194 0.961376
v -1.190940 0.267044 1.005306
v -2.190915 0.267013 -2.954491
v -2.179508 0.268630 -3.015911
v -2.174073 0.217350 -3.007350
v -0.760406 0.423764 -4.514982
v -0.778855 0.478336 -4.507610
v 0.178861 -0.050270 2.992013
v 0.178866 -0.091012 2.935824
v 0.190640 -0.042520 2.943528
v -0.178861 -0.050270 2.992013
v -0.190640 -0.042520 2.943528
v -0.178866 -0.091012 2.935824
vt 0.323367 0.540229
vt 0.337522 0.488691
vt 0.415039 0.518497
vt 0.405234 0.554199
vt 0.213619 0.520841
vt 0.233266 0.449306
vt 0.132155 0.417375
vt 0.110383 0.496647
vt 0.003318 0.467243
vt 0.025090 0.387970
vt 0.363737 0.709134
vt 0.462629 0.553450
vt 0.462629 0.553450
vt 0.363737 0.709134
vt 0.127855 0.413388
vt 0.025819 0.385364
vt 0.025819 0.385364
vt 0.127855 0.413388
vt 0.461478 0.028376
vt 0.360760 0.000714
vt 0.360760 0.000714
vt 0.461478 0.028376
vt 0.458499 0.364100
vt 0.464037 0.031798
vt 0.464037 0.031798
vt 0.458499 0.364100
vt 0.464001 0.548455
vt 0.464001 0.548455
vt 0.106595 0.501218
vt 0.046448 0.720214
vt 0.046448 0.720214
vt 0.106595 0.501218
vt 0.091027 0.968248
vt 0.091027 0.968248
vt 0.198770 0.997650
vt 0.198770 0.997650
vt 0.462719 0.550789
vt 0.110430 0.496661
vt 0.092531 0.967130
vt 0.048595 0.722489
vt 0.323367 0.540229
vt 0.405234 0.554199
vt 0.415039 0.518497
vt 0.337522 0.488691
vt 0.213619 0.520841
vt 0.233266 0.449306
vt 0.132181 0.417378
vt 0.025115 0.387977
vt 0.003343 0.467250
vt 0.110407 0.496658
vt 0.463038 0.032882
vt 0.357114 0.003772
vt 0.457328 0.368260
vt 0.092531 0.967131
vt 0.198465 0.996207
vt 0.364855 0.704960
vt 0.462726 0.550790
vt 0.048586 0.722450
vt 0.357113 0.003773
vt 0.463038 0.032883
vt 0.198465 0.996207
vt 0.094104 0.971623
vt 0.194822 0.999285
vt 0.194822 0.999285
vt 0.094104 0.971623
vt 0.364855 0.704959
vt 0.002614 0.469855
vt 0.104650 0.497879
vt 0.104650 0.497879
vt 0.002614 0.469855
vt 0.356392 0.002044
vt 0.191379 0.192514
vt 0.191379 0.192514
vt 0.356392 0.002044
vt 0.194359 0.191685
vt 0.131233 0.411510
vt 0.131233 0.411510
vt 0.457328 0.368260
vt 0.022488 0.387256
vt 0.000717 0.466528
vt 0.000717 0.466528
vt 0.022488 0.387256
vt 0.194387 0.191655
vn 0.0000 0.9993 0.0383
vn 0.0000 0.9925 0.1225
vn 0.0000 0.9887 0.1498
vn -0.7864 0.0995 -0.6096
vn 1.0000 -0.0001 0.0000
vn 1.0000 0.0058 -0.0000
vn 0.7323 0.0930 -0.6746
vn 0.7864 0.0996 -0.6096
vn 0.0035 0.0921 0.9957
vn -0.8943 0.0406 0.4457
vn -0.7323 0.0932 -0.6745
vn 0.0000 0.9756 0.2196
vn 0.1052 0.9889 -0.1051
vn 0.0000 -0.9992 -0.0387
vn 0.0000 -0.9925 -0.1221
vn 0.0000 -0.9886 -0.1506
vn 0.0939 -0.9936 -0.0628
vn 0.0000 -0.9876 0.1568
vn 0.1038 -0.9852 -0.1365
vn -0.0939 -0.9936 -0.0628
vn -0.2975 -0.9259 -0.2329
vn 0.2975 -0.9259 -0.2329
vn -0.1038 -0.9852 -0.1365
vn 0.0000 -0.9756 -0.2195
vn -0.1053 -0.9889 0.1049
vn -0.0940 0.9936 0.0629
vn 0.0000 0.9876 -0.1569
vn 0.0940 0.9936 0.0629
vn -1.0000 0.0059 -0.0000
vn 0.1038 0.9852 0.1365
vn -1.0000 -0.0001 0.0000
vn 0.2974 0.9259 0.2330
vn 0.8943 0.0406 0.4457
vn 0.1053 -0.9889 0.1049
vn -0.0035 0.0921 0.9957
vn -0.2974 0.9259 0.2330
vn -0.1038 0.9852 0.1365
vn -0.0000 -0.1569 0.9876
vn 0.6606 0.6963 0.2808
vn -0.6606 0.6963 0.2808
vn 0.0000 0.4707 -0.8823
vn 0.9683 0.2025 0.1462
vn 0.9676 0.1826 -0.1746
vn -0.9683 0.2025 0.1462
vn -0.9676 0.1826 -0.1746
vn 0.9470 0.1886 0.2599
vn -0.9470 0.1886 0.2599
vn 0.8698 -0.4729 0.1410
vn -0.8698 -0.4729 0.1410
vn 0.0000 0.0160 -0.9999
vn 0.9728 -0.1796 0.1465
vn 0.9737 -0.1340 -0.1844
vn -0.9728 -0.1796 0.1465
vn -0.9737 -0.1340 -0.1844
vn 0.9470 -0.2599 0.1885
vn -0.9470 -0.2599 0.1885
vn 0.8453 0.3279 0.4218
vn -0.0029 0.7478 0.6640
vn -0.9392 0.3433 0.0002
vn 0.7045 0.3571 -0.6133
vn -0.8453 0.3279 0.4218
vn 0.0029 0.7478 0.6640
vn 0.7064 0.4473 -0.5485
vn -0.7064 0.4473 -0.5485
vn 0.0000 0.5874 0.8093
vn 0.9626 0.2676 0.0415
vn -0.9626 0.2676 0.0415
vn 0.9392 0.3433 0.0002
vn -0.7045 0.3571 -0.6133
vn 0.8608 -0.2745 0.4286
vn -0.0004 -0.6437 0.7653
vn -0.9492 -0.3145 -0.0002
vn 0.7073 -0.1673 -0.6869
vn -0.8608 -0.2745 0.4286
vn 0.0004 -0.6437 0.7653
vn 0.7792 -0.1683 -0.6038
vn -0.7792 -0.1683 -0.6038
vn -0.0000 -0.8096 0.5870
vn 0.9790 -0.2017 -0.0314
vn -0.9790 -0.2017 -0.0314
vn 0.9492 -0.3145 -0.0002
vn -0.7073 -0.1673 -0.6869
vn 0.9719 0.0180 0.2348
vn -0.9719 0.0180 0.2348
vn -0.0000 0.1700 -0.9854
vn 0.9888 0.0101 0.1491
vn 0.9830 0.0233 -0.1821
vn -0.9888 0.0103 0.1491
vn -0.9830 0.0233 -0.1821
vn 0.9724 -0.0352 0.2306
vn -0.9724 -0.0352 0.2306
vn -0.1052 0.9889 -0.1051
usemtl Leaf
s off
f 3/1/1 4/2/1 1/3/1 2/4/1
f 6/5/2 5/6/2 4/2/2 3/1/2
f 14/7/3 18/8/3 46/9/3 44/10/3
f 40/11/4 20/12/4 56/13/4 76/14/4
f 15/15/5 43/16/5 79/17/5 49/18/5
f 29/19/6 23/20/6 59/21/6 63/22/6
f 30/23/7 27/24/7 62/25/7 66/26/7
f 19/27/8 30/23/8 66/26/8 54/28/8
f 16/29/9 35/30/9 71/31/9 51/32/9
f 35/30/10 33/33/10 69/34/10 71/31/10
f 39/35/11 40/11/11 76/14/11 73/36/11
f 2/4/12 1/3/12 21/37/12
f 18/38/13 6/5/13 34/39/13 36/40/13
f 9/41/14 8/42/14 7/43/14 10/44/14
f 12/45/15 9/41/15 10/44/15 11/46/15
f 50/47/16 78/48/16 82/49/16 52/50/16
f 10/44/17 64/51/17 58/52/17 11/46/17
f 52/50/18 12/45/18 11/46/18 50/47/18
f 7/43/19 65/53/19 64/51/19 10/44/19
f 12/45/20 68/54/20 74/55/20 9/41/20
f 8/42/21 75/56/21 55/57/21
f 55/57/22 65/53/22 7/43/22
f 9/41/23 74/55/23 75/56/23 8/42/23
f 8/42/24 55/57/24 7/43/24
f 52/50/25 70/58/25 68/54/25 12/45/25
f 4/2/26 5/6/26 24/59/26 28/60/26
f 18/38/27 14/7/27 5/6/27 6/5/27
f 6/5/28 3/1/28 38/61/28 34/39/28
f 32/62/29 37/63/29 72/64/29 67/65/29
f 3/1/30 2/4/30 41/66/30 38/61/30
f 47/67/31 17/68/31 53/69/31 81/70/31
f 2/4/32 21/37/32 41/66/32
f 22/71/33 26/72/33 60/73/33 57/74/33
f 11/46/34 58/52/34 61/75/34 50/47/34
f 26/72/35 13/76/35 48/77/35 60/73/35
f 21/37/36 1/3/36 31/78/36
f 1/3/37 4/2/37 28/60/37 31/78/37
f 42/79/38 45/80/38 80/81/38 77/82/38
f 13/76/39 14/7/39 15/15/39
f 16/29/40 17/68/40 18/38/40
f 19/27/41 20/12/41 21/37/41
f 22/71/42 23/20/42 24/59/42
f 27/24/43 28/60/43 29/19/43
f 32/62/44 33/33/44 34/39/44
f 37/63/45 38/61/45 39/35/45
f 42/79/46 43/16/46 44/10/46
f 45/80/47 46/9/47 47/67/47
f 48/77/48 49/18/48 50/47/48
f 51/32/49 52/50/49 53/69/49
f 54/28/50 55/57/50 56/13/50
f 57/74/51 58/52/51 59/21/51
f 62/25/52 63/22/52 64/51/52
f 67/65/53 68/54/53 69/34/53
f 72/64/54 73/36/54 74/55/54
f 77/82/55 78/48/55 79/17/55
f 80/81/56 81/70/56 82/49/56
f 26/72/57 22/71/57 24/59/57 25/83/57
f 13/76/58 26/72/58 25/83/58 14/7/58
f 37/63/59 32/62/59 34/39/59 38/61/59
f 27/24/60 30/23/60 31/78/60 28/60/60
f 33/33/61 35/30/61 36/40/61 34/39/61
f 35/30/62 16/29/62 18/38/62 36/40/62
f 30/23/63 19/27/63 21/37/63 31/78/63
f 20/12/64 40/11/64 41/66/64 21/37/64
f 45/80/65 42/79/65 44/10/65 46/9/65
f 43/16/66 15/15/66 14/7/66 44/10/66
f 17/68/67 47/67/67 46/9/67 18/8/67
f 23/20/68 29/19/68 28/60/68 24/59/68
f 40/11/69 39/35/69 38/61/69 41/66/69
f 61/75/70 58/52/70 57/74/70 60/73/70
f 50/47/71 61/75/71 60/73/71 48/77/71
f 74/55/72 68/54/72 67/65/72 72/64/72
f 64/51/73 65/53/73 66/26/73 62/25/73
f 68/54/74 70/58/74 71/31/74 69/34/74
f 70/58/75 52/50/75 51/32/75 71/31/75
f 65/53/76 55/57/76 54/28/76 66/26/76
f 55/57/77 75/56/77 76/14/77 56/13/77
f 82/49/78 78/48/78 77/82/78 80/81/78
f 78/48/79 50/47/79 49/18/79 79/17/79
f 52/50/80 82/49/80 81/70/80 53/69/80
f 58/52/81 64/51/81 63/22/81 59/21/81
f 75/56/82 74/55/82 73/36/82 76/14/82
f 15/15/83 49/18/83 48/77/83 13/76/83
f 16/29/84 51/32/84 53/69/84 17/68/84
f 19/27/85 54/28/85 56/13/85 20/12/85
f 22/71/86 57/74/86 59/21/86 23/20/86
f 29/19/87 63/22/87 62/25/87 27/24/87
f 32/62/88 67/65/88 69/34/88 33/33/88
f 39/35/89 73/36/89 72/64/89 37/63/89
f 42/79/90 77/82/90 79/17/90 43/16/90
f 47/67/91 81/70/91 80/81/91 45/80/91
f 5/6/92 14/7/92 25/83/92 24/59/92
