# Blender v3.1.2 OBJ File: 'Shop.blend'
# www.blender.org
mtllib Shop.mtl
o Plane_Plane.001
v 1.800000 2.700000 0.800000
v 2.000000 2.700000 0.800000
v 1.800000 3.700000 -0.800000
v 2.000000 3.700000 -0.800000
v 1.800000 3.900000 -1.000000
v 1.800000 2.700000 1.000000
v 2.000000 2.700000 1.000000
v 2.000000 3.900000 -1.000000
v 1.800000 1.000000 -0.800000
v 1.800000 1.000000 -1.000000
v 2.000000 1.000000 -0.800000
v 2.000000 1.000000 -1.000000
v 0.000000 -1.000000 0.000000
v 0.000000 1.000000 0.000000
v 0.000000 -1.000000 -1.000000
v 0.000000 1.000000 -1.000000
v 2.000000 -1.000000 0.000000
v 2.000000 1.000000 0.000000
v 2.000000 -1.000000 -1.000000
v 2.000000 1.000000 -1.000000
v 0.000000 0.000000 0.000000
v 0.000000 -0.000000 -1.000000
v 2.000000 -0.000000 -1.000000
v 2.000000 0.000000 0.000000
v 0.000000 0.000000 1.000000
v 0.000000 1.000000 1.000000
v 2.000000 1.000000 1.000000
v 2.000000 0.000000 1.000000
v 1.800000 1.000000 1.000000
v 1.800000 1.000000 0.800000
v 2.000000 1.000000 1.000000
v 2.000000 1.000000 0.800000
v 0.000000 3.700000 -0.800000
v 0.000000 2.700000 0.800000
v 0.000000 3.900000 -1.000000
v 0.000000 2.700000 1.000000
v -1.800000 2.700000 0.800000
v -2.000000 2.700000 0.800000
v -1.800000 3.700000 -0.800000
v -2.000000 3.700000 -0.800000
v -1.800000 3.900000 -1.000000
v -1.800000 2.700000 1.000000
v -2.000000 2.700000 1.000000
v -2.000000 3.900000 -1.000000
v -1.800000 1.000000 -0.800000
v -1.800000 1.000000 -1.000000
v -2.000000 1.000000 -0.800000
v -2.000000 1.000000 -1.000000
v -2.000000 -1.000000 0.000000
v -2.000000 1.000000 0.000000
v -2.000000 -1.000000 -1.000000
v -2.000000 1.000000 -1.000000
v -2.000000 -0.000000 -1.000000
v -2.000000 0.000000 0.000000
v -2.000000 1.000000 1.000000
v -2.000000 0.000000 1.000000
v -1.800000 1.000000 1.000000
v -1.800000 1.000000 0.800000
v -2.000000 1.000000 1.000000
v -2.000000 1.000000 0.800000
vt 0.403975 0.019261
vt 0.238184 0.019261
vt 0.238184 0.000000
vt 0.403975 0.000000
vt 0.216475 0.365968
vt 0.216475 0.385229
vt 0.000000 0.385229
vt 0.000000 0.365968
vt 0.204887 0.548952
vt 0.358979 0.645259
vt 0.378240 0.664521
vt 0.185626 0.548952
vt 0.000000 0.192615
vt 0.216475 0.192615
vt 0.216475 0.019261
vt 0.216475 0.000000
vt 0.423057 0.000000
vt 0.423057 0.019261
vt 0.224149 0.943812
vt 0.224149 0.683782
vt 0.243410 0.664521
vt 0.243410 0.943812
vt 0.262672 0.664521
vt 0.262672 0.943812
vt 0.243410 0.943812
vt 0.243410 0.664521
vt 0.378240 0.385229
vt 0.358979 0.385229
vt 0.281933 0.664521
vt 0.281933 0.924550
vt 0.262672 0.924550
vt 0.262672 0.664521
vt 0.615672 0.375599
vt 0.615672 0.356337
vt 0.634753 0.356337
vt 0.634753 0.375599
vt 0.667162 0.481537
vt 0.763470 0.481537
vt 0.763470 0.577844
vt 0.667162 0.577844
vt 0.519364 0.192615
vt 0.423057 0.192615
vt 0.423057 0.000000
vt 0.519364 0.000000
vt 0.711979 0.192615
vt 0.615672 0.192615
vt 0.615672 0.096307
vt 0.711979 0.096307
vt 0.092813 0.770459
vt 0.092813 0.577844
vt 0.185626 0.577844
vt 0.185626 0.770459
vt 0.859777 0.577844
vt 0.859777 0.385229
vt 0.955184 0.385229
vt 0.955184 0.577844
vt 0.000000 0.770459
vt 0.000000 0.577844
vt 0.904593 0.385229
vt 0.808286 0.385229
vt 0.808286 0.192615
vt 0.904593 0.192615
vt 0.808286 0.192615
vt 0.808286 0.096307
vt 0.615672 0.192615
vt 0.615672 0.000000
vt 0.570855 0.481537
vt 0.570855 0.577844
vt 0.859777 0.770459
vt 0.763470 0.770459
vt 0.763470 0.577844
vt 0.859777 0.577844
vt 0.904593 0.192615
vt 0.904593 0.000000
vt 1.000000 0.000000
vt 1.000000 0.192615
vt 0.667162 0.385229
vt 0.763470 0.385229
vt 0.615672 0.000000
vt 0.711979 0.000000
vt 0.634933 0.192615
vt 0.634933 0.356337
vt 0.615672 0.356337
vt 0.615672 0.192615
vt 0.692717 0.192615
vt 0.692717 0.356337
vt 0.673456 0.356337
vt 0.673456 0.192615
vt 0.204887 0.385229
vt 0.185626 0.385229
vt 0.654194 0.192615
vt 0.654194 0.356337
vt 0.311104 0.683782
vt 0.311104 0.664521
vt 0.330186 0.664521
vt 0.330186 0.683782
vt 0.304498 0.862719
vt 0.301194 0.681037
vt 0.311104 0.664521
vt 0.311104 0.889146
vt 0.403975 0.192615
vt 0.238184 0.192615
vt 0.216475 0.192615
vt 0.423057 0.192615
vt 0.403975 0.365968
vt 0.403975 0.385229
vt 0.238184 0.385229
vt 0.238184 0.365968
vt 0.216475 0.019261
vt 0.000000 0.019261
vt 0.000000 0.000000
vt 0.216475 0.000000
vt 0.397502 0.500798
vt 0.378240 0.500798
vt 0.570855 0.385229
vt 0.551593 0.404491
vt 0.216475 0.385229
vt 0.216475 0.365968
vt 0.423057 0.365968
vt 0.423057 0.385229
vt 0.185626 0.664521
vt 0.204887 0.664521
vt 0.204887 0.943812
vt 0.185626 0.924550
vt 0.224149 0.664521
vt 0.224149 0.943812
vt 0.570855 0.664521
vt 0.551593 0.664521
vt 0.281933 0.664521
vt 0.301195 0.664521
vt 0.301195 0.924550
vt 0.281933 0.924550
vt 0.634753 0.356337
vt 0.653834 0.356337
vt 0.653834 0.375599
vt 0.634753 0.375599
vt 0.519364 0.385229
vt 0.423057 0.385229
vt 0.667162 0.770459
vt 0.667162 0.674151
vt 0.763470 0.674151
vt 0.763470 0.770459
vt 0.092813 0.385229
vt 0.185626 0.385229
vt 0.955184 0.770459
vt 0.859777 0.770459
vt 0.000000 0.385229
vt 0.904593 0.000000
vt 0.808286 0.000000
vt 0.570855 0.770459
vt 0.570855 0.674151
vt 0.615672 0.385229
vt 0.859777 0.385229
vt 0.763470 0.385229
vt 1.000000 0.385229
vt 0.904593 0.385229
vt 0.667162 0.577844
vt 0.763470 0.577844
vt 0.731240 0.356337
vt 0.711979 0.356337
vt 0.711979 0.192615
vt 0.731240 0.192615
vt 0.654194 0.192615
vt 0.673456 0.192615
vt 0.673456 0.356337
vt 0.654194 0.356337
vt 0.397502 0.664521
vt 0.378240 0.664521
vt 0.692718 0.192615
vt 0.711979 0.192615
vt 0.711979 0.356337
vt 0.692718 0.356337
vt 0.653834 0.356337
vt 0.672916 0.356337
vt 0.672916 0.375599
vt 0.653834 0.375599
vn 0.0000 -0.8480 -0.5300
vn 0.0000 0.8575 0.5145
vn 1.0000 -0.0000 0.0000
vn 0.0000 -0.7071 -0.7071
vn 0.0000 -1.0000 0.0000
vn -1.0000 -0.0000 0.0000
vn 0.0000 -0.0000 -1.0000
vn 0.0000 0.0000 1.0000
vn 0.0000 1.0000 0.0000
usemtl Shop
s off
f 1/1/1 3/2/1 4/3/1 2/4/1
f 6/5/2 7/6/2 8/7/2 5/8/2
f 2/9/3 4/10/3 8/11/3 7/12/3
f 6/5/2 5/8/2 35/13/2 36/14/2
f 4/3/4 3/2/4 5/15/4 8/16/4
f 1/1/5 2/4/5 7/17/5 6/18/5
f 9/19/6 3/20/6 5/21/6 10/22/6
f 10/23/7 5/24/7 8/25/7 12/26/7
f 12/27/3 8/11/3 4/10/3 11/28/3
f 11/29/8 4/30/8 3/31/8 9/32/8
f 10/33/5 12/34/5 11/35/5 9/36/5
f 21/37/6 14/38/6 16/39/6 22/40/6
f 22/41/7 16/42/7 20/43/7 23/44/7
f 23/45/3 20/46/3 18/47/3 24/48/3
f 18/49/9 14/50/9 26/51/9 27/52/9
f 15/53/5 19/54/5 17/55/5 13/56/5
f 20/57/9 16/58/9 14/50/9 18/49/9
f 17/59/8 24/60/8 21/61/8 13/62/8
f 19/63/3 23/45/3 24/48/3 17/64/3
f 15/65/7 22/41/7 23/44/7 19/66/7
f 13/67/6 21/37/6 22/40/6 15/68/6
f 28/69/8 27/70/8 26/71/8 25/72/8
f 21/73/5 24/74/5 28/75/5 25/76/5
f 14/38/6 21/37/6 25/77/6 26/78/6
f 24/48/3 18/47/3 27/79/3 28/80/3
f 29/81/6 6/82/6 1/83/6 30/84/6
f 30/85/7 1/86/7 2/87/7 32/88/7
f 32/89/3 2/9/3 7/12/3 31/90/3
f 31/91/8 7/92/8 6/82/8 29/81/8
f 30/93/5 32/94/5 31/95/5 29/96/5
f 33/97/6 34/98/6 36/99/6 35/100/6
f 3/2/1 1/1/1 34/101/1 33/102/1
f 5/15/4 3/2/4 33/102/4 35/103/4
f 1/1/5 6/18/5 36/104/5 34/101/5
f 37/105/1 38/106/1 40/107/1 39/108/1
f 42/109/2 41/110/2 44/111/2 43/112/2
f 38/113/6 43/114/6 44/115/6 40/116/6
f 42/109/2 36/14/2 35/13/2 41/110/2
f 40/107/4 44/117/4 41/118/4 39/108/4
f 37/105/5 42/119/5 43/120/5 38/106/5
f 45/121/3 46/122/3 41/123/3 39/124/3
f 46/122/7 48/125/7 44/126/7 41/123/7
f 48/127/6 47/128/6 40/116/6 44/115/6
f 47/129/8 45/130/8 39/131/8 40/132/8
f 46/133/5 45/134/5 47/135/5 48/136/5
f 22/41/7 53/137/7 52/138/7 16/42/7
f 53/139/6 54/140/6 50/141/6 52/142/6
f 50/143/9 55/144/9 26/51/9 14/50/9
f 15/53/5 13/56/5 49/145/5 51/146/5
f 52/147/9 50/143/9 14/50/9 16/58/9
f 49/148/8 13/62/8 21/61/8 54/149/8
f 51/150/6 49/151/6 54/140/6 53/139/6
f 15/65/7 51/152/7 53/137/7 22/41/7
f 56/153/8 25/72/8 26/71/8 55/154/8
f 21/73/5 25/76/5 56/155/5 54/156/5
f 54/140/6 56/157/6 55/158/6 50/141/6
f 57/159/3 58/160/3 37/161/3 42/162/3
f 58/163/7 60/164/7 38/165/7 37/166/7
f 60/167/6 59/168/6 43/114/6 38/113/6
f 59/169/8 57/170/8 42/171/8 43/172/8
f 58/173/5 57/174/5 59/175/5 60/176/5
f 39/108/1 33/102/1 34/101/1 37/105/1
f 41/118/4 35/103/4 33/102/4 39/108/4
f 37/105/5 34/101/5 36/104/5 42/119/5
